<svg width="150" height="150" viewBox="0 0 150 150" fill="none" xmlns="http://www.w3.org/2000/svg">
<g clip-path="url(#clip0_5963_162)">
<path d="M139.804 97.3998L145.92 70.237L6.32889 70.1626L0 97.3998H139.804Z" fill="#008D58"/>
<path d="M149.049 55.8737H9.38688L6.3291 70.162L145.92 70.2364L149.049 55.8737Z" fill="#FFDE14"/>
<path d="M29.2269 61.3067C33.7069 61.3067 37.5469 57.437 37.9024 52.6742C38.258 47.9114 34.9158 44.0416 30.4358 44.0416C25.9558 44.0416 22.1158 47.9114 21.7602 52.6742C21.4758 57.437 24.7469 61.3067 29.2269 61.3067V61.3067Z" fill="#E40521"/>
<path d="M29.2273 62.1252C26.8807 62.1252 24.7473 61.1577 23.1829 59.3717C21.5473 57.5857 20.8362 55.1298 20.9784 52.5996C21.4051 47.3903 25.6007 43.2229 30.4362 43.2229C32.7829 43.2229 34.9162 44.1903 36.4807 45.9764C38.1162 47.7624 38.8273 50.2182 38.6851 52.7484C38.3295 57.8833 34.0629 62.1252 29.2273 62.1252V62.1252ZM30.5073 44.8601C26.454 44.8601 22.8984 48.3577 22.614 52.7484C22.4718 54.8322 23.1118 56.8415 24.3918 58.3298C25.6718 59.7438 27.3784 60.488 29.2984 60.5624V61.381V60.5624C33.3518 60.5624 36.9073 57.0647 37.1918 52.674C37.334 50.5903 36.694 48.581 35.414 47.0926C34.134 45.6043 32.3562 44.8601 30.5073 44.8601V44.8601Z" fill="black"/>
<path d="M60.4449 78.7951C58.0271 88.9905 50.5604 93.6788 42.4538 93.6788C35.9115 93.6788 33.7782 90.8509 32.9249 89.3626C31.076 86.237 30.9338 82.7393 31.9293 78.4974C34.4182 67.8556 42.5249 63.7626 49.8493 63.7626C60.3027 63.7626 62.0804 71.6509 60.4449 78.7951V78.7951ZM41.6715 78.5719C41.2449 80.3579 40.036 86.1626 44.4449 86.1626C48.6404 86.1626 50.0627 81.3998 50.6315 79.0184C51.1293 76.8602 51.2715 75.0742 50.9871 73.6602C50.7027 72.3207 49.9915 71.2044 48.0715 71.2044C43.5204 71.2044 42.0271 76.8602 41.6715 78.5719V78.5719Z" fill="white"/>
<path d="M42.4537 94.4973C37.4048 94.4973 34.1337 92.9345 32.2137 89.809C30.3648 86.7578 30.0093 83.1113 31.147 78.3485C32.3559 73.2136 34.8448 69.2694 38.6137 66.5159C42.5959 63.6136 46.9337 63.0183 49.8493 63.0183C54.3293 63.0183 57.6004 64.3578 59.5915 67.1113C61.7248 69.9392 62.2937 74.181 61.1559 79.0183C58.8804 88.6927 51.8404 94.4973 42.4537 94.4973V94.4973ZM49.8493 64.581C47.147 64.581 43.1648 65.1764 39.467 67.781C36.0537 70.2369 33.7782 73.8834 32.6404 78.6462C31.5737 83.0369 31.8582 86.1624 33.4937 88.9159C35.0582 91.595 37.9737 92.8601 42.3826 92.8601C46.4359 92.8601 50.1337 91.6694 53.0493 89.4369C56.3204 86.9066 58.5248 83.2601 59.5915 78.5717C60.9426 72.6927 59.3782 69.4927 58.3115 68.0043C56.6759 65.7717 53.8315 64.581 49.8493 64.581V64.581ZM44.4448 86.981C43.0937 86.981 42.027 86.5345 41.387 85.5671C40.3204 84.1531 40.1782 81.6973 40.9604 78.3485C42.5248 71.7252 45.6537 70.3857 48.0715 70.3857C50.0626 70.3857 51.2715 71.3531 51.7693 73.4369C52.0537 74.9252 51.9826 76.8601 51.4137 79.1671C50.1337 84.3764 47.787 86.981 44.4448 86.981V86.981ZM48.0004 72.0229C45.3693 72.0229 43.4493 74.3299 42.3826 78.795C41.5293 82.5159 42.0982 84.0043 42.5248 84.5997C42.9515 85.1206 43.5204 85.4183 44.3737 85.4183C47.0048 85.4183 48.7826 83.2601 49.8493 78.8694C50.347 76.8601 50.4182 75.1485 50.2048 73.8834C49.9204 72.6927 49.4937 72.0229 48.0004 72.0229V72.0229Z" fill="black"/>
<path d="M122.667 70.163C122.952 68.8979 123.663 66.6653 125.583 65.1769C126.436 64.5072 127.503 64.1351 128.498 64.1351C129.138 64.1351 129.849 64.2095 130.418 64.4327C132.694 65.4746 132.267 67.9304 132.125 68.9723C132.338 68.6002 132.552 68.2281 132.836 67.856C134.329 65.9211 136.889 64.0606 139.663 64.0606C142.649 64.0606 143.645 66.1444 143.005 68.749C142.578 70.6839 141.227 72.842 138.383 73.2141C137.956 73.2886 135.68 73.2886 135.254 73.363C131.84 73.8839 130.916 76.6374 130.56 78.2002L128.64 86.2374C128.356 87.3537 128.072 88.3211 127.503 89.363C126.223 91.8188 124.089 93.1583 121.956 93.1583C120.676 93.1583 119.538 92.6374 118.898 91.67C117.832 90.1816 118.258 88.1723 118.543 86.9072L122.667 70.163V70.163Z" fill="white"/>
<path d="M122.098 94.0512C120.534 94.0512 119.183 93.3814 118.401 92.1907C117.121 90.3302 117.69 88.0233 117.974 86.7581L121.956 70.014C122.17 69.1209 122.81 66.4419 125.156 64.5814C126.081 63.8372 127.361 63.3907 128.57 63.3907C129.281 63.3907 130.063 63.4651 130.774 63.7628C132.196 64.4326 132.765 65.5488 132.978 66.6651C134.614 64.9535 137.032 63.3163 139.805 63.3163C141.796 63.3163 142.792 64.1349 143.29 64.8047C144.072 65.8465 144.285 67.3349 143.858 68.9721C143.503 70.3116 142.365 73.5861 138.596 74.0326C138.383 74.0326 137.814 74.107 136.961 74.107C136.392 74.107 135.681 74.1814 135.467 74.1814C132.694 74.5535 131.841 76.6372 131.414 78.4233L129.494 86.4605C129.423 86.6093 129.423 86.7581 129.352 86.907C129.067 87.8744 128.854 88.8419 128.285 89.8093C126.934 92.414 124.516 94.0512 122.098 94.0512V94.0512ZM128.498 64.9535C127.645 64.9535 126.721 65.2512 126.01 65.8465C124.09 67.3349 123.592 69.6419 123.378 70.3861L119.396 87.1302C119.041 88.4698 118.827 90.107 119.61 91.2233C120.107 91.9674 121.032 92.414 122.027 92.414C123.947 92.414 125.796 91.0744 126.863 89.0651C127.29 88.2465 127.503 87.4279 127.787 86.5349C127.858 86.3861 127.858 86.2372 127.93 86.0884L129.85 78.0512C130.134 76.8605 130.987 73.214 135.183 72.6186C135.396 72.6186 135.965 72.5442 136.818 72.5442C137.387 72.5442 138.17 72.4698 138.312 72.4698C141.085 72.1721 142.01 69.9395 142.294 68.6C142.578 67.4093 142.436 66.3675 142.01 65.7721C141.583 65.1768 140.801 64.8791 139.734 64.8791C137.103 64.8791 134.756 66.6651 133.476 68.3768L133.05 69.0465C132.978 69.1954 132.907 69.3442 132.836 69.4186C132.623 69.7163 132.267 69.8651 131.912 69.7163C131.556 69.5675 131.414 69.1954 131.414 68.8233V68.7488C131.77 66.2186 130.987 65.4744 130.134 65.1023C129.565 65.0279 128.996 64.9535 128.498 64.9535V64.9535Z" fill="black"/>
<path d="M69.4051 50.7394C69.8318 49.0277 70.2584 47.3161 71.7518 45.8277C72.9606 44.7114 74.454 43.9673 75.9473 43.9673C77.5829 43.9673 80.6406 44.8603 79.3606 50.2928L74.6673 72.6928L82.9873 65.1021C84.3384 63.9114 85.974 63.5394 87.894 63.6882C90.454 63.9114 90.9517 66.3673 90.5251 68.2277C90.0984 69.9393 88.8184 70.9812 87.7517 71.8742L83.0584 75.8928L86.5429 84.5998C86.9695 85.7161 87.3962 86.8324 87.0406 88.3952C86.4006 91.1487 83.6984 93.2324 81.2095 93.2324C78.7918 93.2324 78.0095 91.5207 77.4406 90.33L74.454 82.3673L71.7518 84.5998L70.9695 87.7998C70.6851 88.9161 70.3295 89.958 69.1918 91.2231C68.2673 92.2649 66.774 93.3068 64.7829 93.3068C63.9295 93.3068 63.0762 93.0835 62.4362 92.637C60.4451 91.2975 60.9429 88.7673 61.1562 87.7254L69.4051 50.7394V50.7394Z" fill="white"/>
<path d="M81.2803 94.0512C78.4358 94.0512 77.3692 91.893 76.8003 90.7768V90.7023L74.1692 83.6326L72.4625 85.0465L71.7514 87.9488C71.4669 89.0651 71.1114 90.3302 69.7603 91.6698C68.978 92.5628 67.3425 93.9768 64.8536 93.9768C63.7869 93.9768 62.8625 93.6791 62.0803 93.1581C60.9425 92.3395 59.7336 90.7023 60.5158 87.3535L68.6936 50.4419C69.0492 48.9535 69.5469 46.8698 71.2536 45.0837C72.6047 43.7442 74.3114 43 75.9469 43C76.658 43 78.4358 43.1488 79.5025 44.6372C80.498 45.9023 80.6403 47.8372 80.0714 50.293L75.8758 70.3116L82.418 64.2093C83.6269 63.093 85.1914 62.5721 86.9692 62.5721C87.2536 62.5721 87.5381 62.5721 87.8936 62.6465C89.1025 62.7209 90.0269 63.3163 90.6669 64.2093C91.3781 65.2512 91.5914 66.7395 91.2358 68.2279C90.8092 70.014 89.5292 71.2047 88.4625 72.0977L88.2492 72.3209L83.9825 75.9674L87.2536 84.2279C87.6803 85.3442 88.178 86.6837 87.7514 88.4698C87.1114 91.6698 84.1958 94.0512 81.2803 94.0512V94.0512ZM78.1514 90.0326C78.6492 91.0744 79.3603 92.414 81.2092 92.414C83.4847 92.414 85.7603 90.5535 86.258 88.1721C86.5425 86.907 86.1869 85.9395 85.8314 84.8977V84.8233L82.3469 76.1163C82.2047 75.8186 82.2758 75.4465 82.5603 75.2233L87.4669 70.9814C88.4625 70.1628 89.458 69.2698 89.7425 67.9302C89.9558 66.8884 89.8847 65.8465 89.458 65.2512C89.1025 64.7302 88.5336 64.4326 87.8225 64.3581C85.9736 64.2093 84.5514 64.5814 83.4847 65.5488L75.1647 73.3628C74.9514 73.5861 74.5247 73.6605 74.2403 73.4372C73.9558 73.2884 73.8136 72.9163 73.8847 72.5442L78.5781 50.1442C79.0047 48.2093 78.9336 46.7209 78.2936 45.8279C77.5825 44.8605 76.3736 44.786 75.8758 44.786C74.5958 44.786 73.2447 45.3814 72.2492 46.4233C70.9692 47.7628 70.5425 49.1767 70.1158 50.9628L61.938 87.8744C61.4403 89.8093 61.7958 91.2233 62.8625 91.9675C63.3603 92.3395 64.0003 92.4884 64.7825 92.4884C66.7025 92.4884 67.9825 91.3721 68.6225 90.7023C69.6892 89.5861 69.9025 88.693 70.1869 87.6512L70.9692 84.4512C71.0403 84.3023 71.1114 84.1535 71.2536 84.0047L73.9558 81.7721C74.1692 81.6233 74.3825 81.5488 74.5958 81.6233C74.8092 81.6977 75.0225 81.8465 75.0936 82.0698L78.1514 90.0326V90.0326Z" fill="black"/>
<path d="M98.6313 80.9535C98.418 82.1442 97.9913 86.2372 102.258 86.2372C103.396 86.2372 106.24 85.9395 108.16 84.8232C109.298 84.1535 110.436 83.2604 111.218 83.2604C113.493 83.2604 114.987 84.9721 114.489 87.1302C113.849 89.7348 108.729 93.679 100.48 93.679C90.1691 93.679 88.2491 85.7907 90.0269 78.2744C91.9468 70.1628 98.1335 63.4651 107.733 63.4651C117.191 63.4651 119.609 70.4604 118.116 76.786C117.547 79.2418 116.196 80.9535 113.991 80.9535H98.6313V80.9535ZM109.796 74.8511C109.867 73.9581 109.796 73.7349 109.582 72.9163C109.511 72.4697 108.445 70.8325 106.027 70.8325C105.245 70.8325 104.462 70.9814 103.822 71.3535C102.187 72.0976 100.836 73.0651 100.125 74.8511H109.796V74.8511Z" fill="white"/>
<path d="M100.551 94.4977C96.1422 94.4977 92.9422 93.1581 90.88 90.4791C88.6756 87.5768 88.1067 83.1861 89.3156 78.1256C90.3822 73.7349 92.5156 70.014 95.5022 67.2605C98.8445 64.2837 103.04 62.7209 107.733 62.7209C112 62.7209 115.271 64.1349 117.262 66.7395C119.182 69.3442 119.822 73.0651 118.898 77.0093C118.187 80.0605 116.409 81.7721 114.062 81.7721H99.3422C99.2711 83.0372 99.4133 84.0047 99.9111 84.6C100.409 85.1954 101.191 85.493 102.258 85.493C103.182 85.493 105.956 85.2698 107.804 84.1535C108.018 84.0047 108.302 83.8558 108.516 83.707C109.511 83.1116 110.436 82.5163 111.289 82.5163C112.711 82.5163 113.92 83.1116 114.631 84.0791C115.342 84.9721 115.556 86.1628 115.271 87.3535C114.844 88.9907 113.209 90.7767 110.72 92.1163C108.729 93.2326 105.387 94.4977 100.551 94.4977V94.4977ZM107.804 64.2837C97.7778 64.2837 92.4445 71.6512 90.88 78.4977C89.8133 83.0372 90.24 86.9814 92.16 89.5116C93.8667 91.8186 96.7111 92.9349 100.622 92.9349C108.871 92.9349 113.351 88.9907 113.849 86.9814C113.991 86.2372 113.92 85.5675 113.493 85.0465C113.067 84.4512 112.213 84.0791 111.289 84.0791C110.862 84.0791 110.009 84.6 109.298 85.0465C109.084 85.1954 108.8 85.3442 108.587 85.493C106.524 86.6837 103.538 87.0558 102.258 87.0558C100.693 87.0558 99.4845 86.5349 98.7022 85.6419C97.8489 84.5256 97.4933 82.9628 97.8489 80.8791C97.92 80.507 98.2045 80.2093 98.6311 80.2093H114.133C116.338 80.2093 117.191 77.9768 117.476 76.6372C118.258 73.214 117.831 69.9395 116.124 67.7814C114.489 65.4744 111.573 64.2837 107.804 64.2837V64.2837ZM109.796 75.6698H100.053C99.7689 75.6698 99.5556 75.5209 99.4134 75.2977C99.2711 75.0744 99.2711 74.7768 99.3422 74.5535C100.196 72.3954 101.831 71.3535 103.467 70.6093C104.178 70.2372 105.102 70.014 106.027 70.014C107.52 70.014 108.587 70.6093 109.156 71.0558C109.867 71.5768 110.222 72.2465 110.364 72.693C110.364 72.7675 110.436 72.8419 110.436 72.9163C110.649 73.5861 110.72 73.9582 110.578 74.8512C110.507 75.3721 110.222 75.6698 109.796 75.6698V75.6698ZM101.404 74.0326H109.084C109.084 73.8837 109.013 73.6605 108.942 73.4372C108.942 73.3628 108.871 73.2884 108.871 73.1395C108.8 72.9163 107.947 71.6512 106.027 71.6512C105.316 71.6512 104.676 71.8 104.107 72.0977C102.969 72.6186 102.044 73.214 101.404 74.0326V74.0326Z" fill="black"/>
<path d="M25.7423 90.1809C25.6001 90.7763 24.249 95.9856 20.2668 99.7065C16.569 103.204 9.60012 105.288 8.8179 105.511C6.40012 106.255 3.84012 104.767 3.20012 102.237C2.48901 99.7065 3.91124 97.0274 6.32901 96.3577C8.67568 95.6879 12.6579 94.0507 14.2223 92.5623C15.7868 91.0739 16.7112 88.6925 16.9246 87.8739L20.9068 70.3856C21.2623 68.7484 21.7601 67.1111 23.1823 65.6228C24.3201 64.5065 25.7423 63.8367 27.2357 63.8367C28.8001 63.8367 31.7868 64.6553 30.5779 70.0135C30.5779 69.8646 25.7423 90.1809 25.7423 90.1809V90.1809Z" fill="white"/>
<path d="M7.60911 106.479C5.26245 106.479 3.12911 104.842 2.48911 102.386C2.13356 100.972 2.27578 99.409 2.98689 98.1439C3.698 96.8788 4.83578 95.9114 6.18689 95.4648C8.39133 94.7951 12.3024 93.2323 13.7247 91.8928C15.1469 90.5532 16.0002 88.2462 16.1424 87.5765L20.1247 70.0881C20.4802 68.5997 20.978 66.5904 22.6136 64.9532C23.8936 63.6881 25.6002 62.9439 27.1647 62.9439C27.8758 62.9439 29.5824 63.0928 30.6491 64.5811C31.5736 65.8462 31.7869 67.7067 31.218 70.0881C31.1469 70.3114 26.4536 90.2555 26.4536 90.4044C26.3113 90.9997 24.8891 96.4323 20.7647 100.302C16.9247 103.874 9.81356 106.032 9.03133 106.256C8.60467 106.404 8.10689 106.479 7.60911 106.479V106.479ZM6.61356 97.0276C5.618 97.3253 4.83578 97.9951 4.338 98.8881C3.84022 99.7811 3.698 100.897 3.98245 101.939C4.40911 103.651 5.97356 104.842 7.68022 104.842C8.03578 104.842 8.39133 104.767 8.74689 104.693C9.52911 104.469 16.2847 102.386 19.9113 99.0369C23.7513 95.4648 25.0313 90.4788 25.1736 89.9579C25.1736 89.9579 28.8713 74.4044 29.938 69.6416C30.3647 67.7811 30.2935 66.2928 29.6536 65.4741C29.0136 64.5811 27.8047 64.5067 27.378 64.5067C26.1691 64.5067 24.8891 65.1021 23.8936 66.0695C22.6136 67.3346 22.258 68.7486 21.8313 70.4602L17.778 87.9486C17.4936 89.0648 16.5691 91.5207 14.8624 93.0834C13.0136 94.7207 8.818 96.3579 6.61356 97.0276V97.0276Z" fill="black"/>
</g>
<defs>
<clipPath id="clip0_5963_162">
<rect width="149.049" height="63.4788" fill="white" transform="translate(0 43)"/>
</clipPath>
</defs>
</svg>
